HIERARCHY
ROOT Hips
{
 OFFSET 0.000000 0.000000 0.000000
 CHANNELS 6 Xposition Yposition Zposition Yrotation Xrotation Zrotation
 JOINT Chest
 {
  OFFSET 0.000000 9.585900 0.002600
  CHANNELS 3 Yrotation Xrotation Zrotation
  JOINT Chest2
  {
   OFFSET 0.000000 9.601200 -0.005300
   CHANNELS 3 Yrotation Xrotation Zrotation
   JOINT Chest3
   {
    OFFSET 0.000000 9.561800 0.000000
    CHANNELS 3 Yrotation Xrotation Zrotation
    JOINT Chest4
    {
     OFFSET 0.000000 9.552100 0.000000
     CHANNELS 3 Yrotation Xrotation Zrotation
     JOINT Neck
     {
      OFFSET 0.000000 14.453000 0.000000
      CHANNELS 3 Yrotation Xrotation Zrotation
      JOINT Head
      {
       OFFSET 0.000000 8.936500 -0.011300
       CHANNELS 3 Yrotation Xrotation Zrotation
       End Site
       {
        OFFSET 0.000000 17.073600 -0.006000
       }
      }
     }
     JOINT RightCollar
     {
      OFFSET -2.921100 9.558500 0.000000
      CHANNELS 3 Yrotation Xrotation Zrotation
      JOINT RightShoulder
      {
       OFFSET -13.519700 0.000000 0.000000
       CHANNELS 3 Yrotation Xrotation Zrotation
       JOINT RightElbow
       {
        OFFSET 0.000000 -29.696600 0.000000
        CHANNELS 3 Yrotation Xrotation Zrotation
        JOINT RightWrist
        {
         OFFSET 0.000000 -24.004700 0.000000
         CHANNELS 3 Yrotation Xrotation Zrotation
         End Site
         {
          OFFSET 0.000000 -17.728500 0.000000
         }
        }
       }
      }
     }
     JOINT LeftCollar
     {
      OFFSET 2.921100 9.558500 0.000000
      CHANNELS 3 Yrotation Xrotation Zrotation
      JOINT LeftShoulder
      {
       OFFSET 13.519700 0.000000 0.000000
       CHANNELS 3 Yrotation Xrotation Zrotation
       JOINT LeftElbow
       {
        OFFSET 0.000000 -29.696600 0.000000
        CHANNELS 3 Yrotation Xrotation Zrotation
        JOINT LeftWrist
        {
         OFFSET 0.000000 -24.004700 0.000000
         CHANNELS 3 Yrotation Xrotation Zrotation
         End Site
         {
          OFFSET 0.000000 -17.728500 0.000000
         }
        }
       }
      }
     }
    }
   }
  }
 }
 JOINT RightHip
 {
  OFFSET -7.771700 -0.012900 -0.001300
  CHANNELS 3 Yrotation Xrotation Zrotation
  JOINT RightKnee
  {
   OFFSET 0.000000 -40.869800 0.001200
   CHANNELS 3 Yrotation Xrotation Zrotation
   JOINT RightAnkle
   {
    OFFSET 0.000000 -39.717900 0.002100
    CHANNELS 3 Yrotation Xrotation Zrotation
    JOINT RightToe
    {
     OFFSET 0.000000 -4.965400 11.033500
     CHANNELS 3 Yrotation Xrotation Zrotation
     End Site
     {
      OFFSET 0.000000 -1.423100 5.872300
     }
    }
   }
  }
 }
 JOINT LeftHip
 {
  OFFSET 7.771700 -0.012900 -0.001300
  CHANNELS 3 Yrotation Xrotation Zrotation
  JOINT LeftKnee
  {
   OFFSET 0.000000 -40.869800 0.001200
   CHANNELS 3 Yrotation Xrotation Zrotation
   JOINT LeftAnkle
   {
    OFFSET 0.000000 -39.717900 0.002100
    CHANNELS 3 Yrotation Xrotation Zrotation
    JOINT LeftToe
    {
     OFFSET 0.000000 -4.965400 11.033500
     CHANNELS 3 Yrotation Xrotation Zrotation
     End Site
     {
      OFFSET 0.000000 -1.423100 5.872300
     }
    }
   }
  }
 }
}
MOTION
Frames: 5
Frame Time: 0.008333
0.000000 85.388000 0.000000 0.000000 -5.767877 0.000000 0.000000 11.653817 0.000000 0.000000 -5.885947 0.000000 0.000000 -0.000000 0.000000 0.000000 -0.000000 0.000000 0.000000 12.528835 0.000000 0.000000 0.711642 0.000000 0.000000 -0.000000 0.000000 0.000000 0.000000 -90.000000 0.000000 -2.309062 0.000000 0.000000 2.309062 0.000000 0.000000 -0.000000 0.000000 0.000000 -0.000000 90.000000 0.000000 -2.309062 0.000000 0.000000 2.309062 0.000000 0.000000 8.520406 0.000000 0.000000 1.905762 0.000000 -0.000000 -4.658285 0.000000 0.000000 -0.000000 0.000000 0.000000 8.520406 0.000000 0.000000 1.905762 0.000000 -0.000000 -4.658285 0.000000 0.000000 -0.000000 0.000000
-17.676813 58.316469 29.198158 169.206761 -41.357890 -1.381533 4.869352 26.390112 3.792124 0.705952 4.620642 0.327255 1.132840 7.315663 0.546000 3.725596 21.789056 2.146312 4.963415 15.343972 -2.472691 10.162266 -6.913985 -6.419574 3.658533 3.252608 -0.727915 21.549377 -35.336095 -18.400186 41.884489 -50.858744 -22.398259 7.494444 -2.687390 -32.144716 -9.210465 -0.290074 -2.407809 -13.406240 -30.143597 9.352850 -60.983583 -50.387954 39.178454 -24.741824 -2.197746 31.530164 10.768702 -30.939886 3.524185 -9.327727 69.371483 -4.343541 0.326926 3.262206 -2.099929 -0.014983 0.151704 0.010098 -4.838933 -32.544371 1.015633 31.027307 72.933392 28.612087 -21.794285 -0.716076 -0.245638 -0.406524 -0.985678 -0.151311
-17.680233 58.316678 29.199630 169.211297 -41.354035 -1.384956 4.866749 26.390243 3.800223 0.705538 4.626002 0.340380 1.132171 7.314273 0.544212 3.722888 21.787105 2.147976 4.826496 15.399402 -2.522294 9.906184 -6.824987 -6.498165 3.656020 3.275366 -0.690240 21.552695 -35.337895 -18.432186 41.897912 -50.941742 -22.468092 7.532361 -2.648814 -32.075386 -9.215243 -0.268719 -2.384434 -13.454603 -30.134161 9.371066 -61.449205 -50.242272 39.613063 -24.803870 -2.189155 31.444413 10.782763 -30.943886 3.521229 -9.337861 69.367622 -4.351200 0.320478 3.265660 -2.090853 -0.011772 0.151704 0.007748 -4.838934 -32.549410 1.017442 31.027641 72.934355 28.602906 -21.774483 -0.715028 -0.238741 -0.418953 -0.985768 -0.152165
-17.687544 58.315334 29.202296 169.222288 -41.334791 -1.372914 4.847652 26.377875 3.784804 0.704705 4.628352 0.350018 1.132005 7.317996 0.556901 3.716495 21.782938 2.139223 4.671395 15.458136 -2.588151 9.623804 -6.731582 -6.604301 3.651763 3.294370 -0.665710 21.493701 -35.339110 -18.380892 42.022021 -50.994970 -22.600647 7.556794 -2.625250 -32.033784 -9.221327 -0.247333 -2.367186 -13.503107 -30.121453 9.391327 -61.888034 -50.102520 40.029393 -24.862582 -2.178264 31.365690 10.806258 -30.963216 3.492017 -9.366594 69.369461 -4.380767 0.319454 3.265607 -2.078073 -0.008093 0.152705 0.007485 -4.831357 -32.570883 0.999299 31.030303 72.925198 28.588911 -21.771437 -0.702932 -0.223927 -0.403563 -0.986958 -0.157436
-17.691049 58.316146 29.203380 169.222217 -41.332969 -1.374457 4.846382 26.383773 3.806745 0.703747 4.628212 0.354407 1.130953 7.323864 0.570570 3.711027 21.785334 2.147480 4.489566 15.513961 -2.696698 9.319455 -6.631917 -6.735572 3.638666 3.307162 -0.666648 21.436465 -35.338881 -18.328466 42.159917 -51.049190 -22.743713 7.578850 -2.597539 -31.995754 -9.235492 -0.224712 -2.349720 -13.531859 -30.129712 9.386910 -62.287067 -49.970383 40.410346 -24.917176 -2.168475 31.295783 10.808011 -30.964303 3.501281 -9.381980 69.364144 -4.409824 0.320913 3.269197 -2.066356 -0.008073 0.153176 0.006910 -4.824475 -32.573350 1.000368 31.019250 72.924683 28.578933 -21.780292 -0.702577 -0.224250 -0.393277 -0.987876 -0.158284
